<svg width="109" height="109" viewBox="0 0 109 109" fill="none" xmlns="http://www.w3.org/2000/svg">
<path d="M53.4812 107.481C82.8852 107.481 106.721 83.644 106.721 54.24C106.721 24.836 82.8852 1 53.4812 1C24.0772 1 0.241211 24.836 0.241211 54.24C0.241211 83.644 24.0772 107.481 53.4812 107.481Z" fill="white"/>
<path d="M53.4812 107.481C82.8852 107.481 106.721 83.644 106.721 54.24C106.721 24.836 82.8852 1 53.4812 1C24.0772 1 0.241211 24.836 0.241211 54.24C0.241211 83.644 24.0772 107.481 53.4812 107.481Z" stroke="#EBECEC" stroke-width="0.25"/>
<path d="M103.992 54.24C103.992 82.136 81.3767 104.751 53.4807 104.751C25.5837 104.751 2.96973 82.136 2.96973 54.24C2.96973 26.343 25.5837 3.72902 53.4807 3.72902C81.3767 3.72902 103.992 26.343 103.992 54.24Z" fill="#FFF20A"/>
<path d="M68.5615 58.572L69.1925 56.651C69.5995 57.618 71.2685 58.39 72.7695 58.39C74.6775 58.39 75.4205 57.801 75.4205 57.029C75.4205 56.342 74.6345 55.795 72.7275 55.655C69.7825 55.43 69.0105 54.42 69.0105 52.639C69.0105 50.955 70.3425 49.651 72.6715 49.651C74.5515 49.651 75.8695 50.423 76.3465 51.194L75.8975 53.031C75.3925 52.611 74.3265 52.022 72.6995 52.022C70.8065 52.022 70.2595 52.723 70.2595 53.438C70.2595 54.07 70.6515 54.518 72.8115 54.701C75.7155 54.939 76.7675 56.047 76.7525 57.688C76.7525 59.47 75.2945 60.452 72.7695 60.452C70.8065 60.452 68.9965 59.61 68.5615 58.572Z" fill="#241F21"/>
<path d="M78.2002 60.312V58.334H80.2482V52.597H78.2842V50.072H83.1652V52.597H81.2582V58.334H83.2502V60.312H78.2002Z" fill="#241F21"/>
<path d="M85.6357 50.072H89.0447C91.5547 50.072 93.3647 51.531 93.3647 55.276C93.3647 59.049 91.5687 60.312 89.0997 60.312H85.6357V50.072ZM89.5767 58.292C91.0497 58.292 92.5087 57.156 92.5087 55.458C92.5087 53.775 91.2607 52.527 89.3387 52.527H86.6457V58.292H89.5767Z" fill="#241F21"/>
<path d="M95.4561 50.072H101.684V52.597H96.4521V54.729H100.407V55.935H96.4521V58.474H101.768V60.312H95.4561V50.072Z" fill="#241F21"/>
<path d="M12.1827 55.824C12.3067 55.722 12.4167 55.671 12.5107 55.671C12.7077 55.671 12.8067 55.759 12.8067 55.934C12.8067 56.006 12.7367 56.112 12.5987 56.251C12.2917 56.506 11.9127 56.789 11.4607 57.099C11.0077 57.409 10.4647 57.728 9.82966 58.056C9.19566 58.385 8.52566 58.651 7.82266 58.855C7.11866 59.059 6.43466 59.161 5.77066 59.161C4.37766 59.161 3.68066 58.939 3.68066 58.494C3.68066 58.18 3.99466 58.023 4.62166 58.023C4.79666 58.023 5.17666 58.053 5.75966 58.111C6.34366 58.17 6.78066 58.199 7.07266 58.199C7.33566 58.199 7.56566 58.177 7.76266 58.133C7.90066 58.089 8.10466 57.896 8.37466 57.553C8.64466 57.21 8.91166 56.8 9.17366 56.322C9.43666 55.844 9.67466 55.312 9.88966 54.724C10.1047 54.137 10.2387 53.57 10.2897 53.023C9.72766 53.453 9.00066 53.966 8.10666 54.561C7.21366 55.155 6.31366 55.733 5.40966 56.294C5.36566 56.324 5.30766 56.338 5.23466 56.338C5.14666 56.338 5.06866 56.307 4.99966 56.245C4.92966 56.183 4.89466 56.109 4.89466 56.021C4.89466 55.919 4.94666 55.839 5.04866 55.781C6.51466 54.832 7.64866 54.09 8.45166 53.554C9.25366 53.017 9.86666 52.556 10.2897 52.169C10.2757 52.038 10.2607 51.931 10.2457 51.847C10.2307 51.763 10.2237 51.706 10.2237 51.677C10.2237 51.487 10.2897 51.32 10.4207 51.174C10.5527 51.028 10.7057 50.955 10.8807 50.955C11.2087 50.955 11.3727 51.174 11.3727 51.612C11.3727 51.809 11.2377 52.071 10.9677 52.399C10.9677 53.296 10.7817 54.223 10.4107 55.179C10.0377 56.134 9.58966 56.976 9.06466 57.706C9.69166 57.429 10.2857 57.114 10.8477 56.76C11.4097 56.406 11.8547 56.094 12.1827 55.824Z" fill="#241F21"/>
<mask id="mask0_33_3" style="mask-type:luminance" maskUnits="userSpaceOnUse" x="0" y="1" width="109" height="108">
<path d="M0.000976562 108.087H109V1.37324H0.000976562V108.087Z" fill="white"/>
</mask>
<g mask="url(#mask0_33_3)">
<path d="M13.3756 58.909C12.6826 58.909 12.3366 58.643 12.3366 58.11C12.3366 57.571 12.7996 56.747 13.7256 55.638C13.2736 55.932 12.9386 56.14 12.7196 56.262C12.6096 56.305 12.5216 56.327 12.4566 56.327C12.2446 56.327 12.1396 56.236 12.1396 56.054C12.1396 55.894 12.2336 55.763 12.4236 55.661C13.1166 55.217 13.8996 54.686 14.7706 54.067C15.6426 53.449 16.4066 52.844 17.0636 52.255C17.1506 52.182 17.2476 52.095 17.3526 51.993C17.4586 51.891 17.5586 51.802 17.6536 51.726C17.7486 51.649 17.8286 51.611 17.8946 51.611C18.1056 51.611 18.2126 51.684 18.2126 51.829C18.2126 51.946 18.1606 52.045 18.0586 52.124C17.8256 52.358 17.3746 52.791 16.7076 53.424C16.0406 54.058 15.5166 54.572 15.1376 54.965C14.5606 55.62 14.1506 56.098 13.9066 56.396C13.6616 56.695 13.4526 56.99 13.2766 57.281C13.1016 57.572 13.0146 57.809 13.0146 57.991C13.0146 58.224 13.1636 58.341 13.4636 58.341C13.6826 58.341 14.0026 58.26 14.4256 58.1C15.0246 57.867 15.6756 57.527 16.3796 57.079C17.0836 56.631 17.7746 56.141 18.4526 55.61C19.1316 55.078 19.8326 54.49 20.5596 53.845C21.2846 53.201 21.9286 52.598 22.4906 52.037C22.5486 51.964 22.6066 51.893 22.6656 51.824C22.7236 51.755 22.7876 51.695 22.8566 51.644C22.9256 51.593 23.0046 51.567 23.0916 51.567C23.2746 51.567 23.3656 51.647 23.3656 51.808C23.3656 51.975 23.2746 52.146 23.0916 52.321C22.7636 52.678 22.4026 53.048 22.0086 53.43C21.6156 53.812 21.2116 54.214 20.7996 54.637C20.3876 55.059 20.0106 55.467 19.6676 55.86C19.2586 56.334 18.9356 56.765 18.6986 57.155C18.4616 57.544 18.3436 57.838 18.3436 58.035C18.3436 58.224 18.4486 58.318 18.6606 58.318C18.9156 58.318 19.3466 58.175 19.9516 57.888C20.5576 57.601 21.1826 57.256 21.8286 56.853C22.4736 56.45 22.9716 56.099 23.3216 55.801C23.4096 55.729 23.4896 55.692 23.5626 55.692C23.6716 55.692 23.7596 55.722 23.8256 55.78C23.8916 55.838 23.9236 55.911 23.9236 55.999C23.9236 56.108 23.8866 56.192 23.8146 56.25C23.4056 56.557 22.8876 56.911 22.2606 57.312C21.6326 57.713 20.9616 58.092 20.2466 58.45C19.5316 58.807 18.9746 58.986 18.5726 58.986C18.0036 58.986 17.7196 58.722 17.7196 58.195C17.7196 57.675 17.9896 57.059 18.5296 56.349C17.5886 57.023 16.6656 57.618 15.7606 58.135C14.8566 58.651 14.0616 58.909 13.3756 58.909Z" fill="#241F21"/>
<path d="M23.7694 56.284C23.7034 56.327 23.6454 56.349 23.5944 56.349C23.5074 56.349 23.4284 56.309 23.3594 56.229C23.2894 56.149 23.2554 56.062 23.2554 55.967C23.2554 55.851 23.3064 55.763 23.4084 55.705C23.9194 55.392 24.6014 54.923 25.4544 54.297C26.3084 53.671 27.0374 53.096 27.6424 52.572C27.7594 52.441 27.8874 52.299 28.0254 52.146C28.1644 51.993 28.3214 51.822 28.4964 51.633C28.5844 51.546 28.7114 51.502 28.8794 51.502C28.9524 51.502 29.0104 51.52 29.0544 51.557C29.0984 51.593 29.1204 51.655 29.1204 51.743C29.1204 51.896 29.0394 52.075 28.8794 52.279C28.1284 53.278 27.2014 54.383 26.1004 55.594C28.3904 53.887 30.6154 52.56 32.7744 51.612C32.9784 51.524 33.1504 51.48 33.2884 51.48C33.5154 51.48 33.6284 51.582 33.6284 51.786C33.6284 52.085 33.4354 52.434 33.0484 52.835C32.8884 53.01 32.4854 53.418 31.8394 54.058C31.1934 54.699 30.6624 55.231 30.2474 55.653C29.8314 56.076 29.4884 56.451 29.2184 56.779C28.7224 57.339 28.4744 57.758 28.4744 58.035C28.4744 58.253 28.6314 58.362 28.9454 58.362C29.3534 58.362 30.0924 58.06 31.1614 57.452C32.2294 56.846 33.0594 56.288 33.6504 55.78C33.7374 55.707 33.8354 55.671 33.9454 55.671C34.0254 55.671 34.0964 55.7 34.1594 55.759C34.2214 55.817 34.2524 55.897 34.2524 55.999C34.2524 56.079 34.2154 56.156 34.1424 56.229C33.7704 56.513 33.2484 56.871 32.5774 57.301C31.9064 57.732 31.2024 58.128 30.4654 58.488C29.7294 58.85 29.1564 59.03 28.7484 59.03C28.4714 59.03 28.2444 58.957 28.0694 58.811C27.8944 58.665 27.8074 58.461 27.8074 58.199C27.8074 57.673 28.1354 57.06 28.7914 56.361C30.5424 54.457 31.8334 53.143 32.6654 52.421C31.6074 52.925 30.6134 53.448 29.6834 53.991C28.7534 54.535 27.8964 55.093 27.1124 55.665C26.3284 56.238 25.4984 56.904 24.6234 57.662C24.2074 58.129 23.9134 58.425 23.7424 58.549C23.5704 58.673 23.4084 58.734 23.2554 58.734C23.0724 58.734 22.9814 58.647 22.9814 58.472C22.9814 58.341 23.0434 58.199 23.1674 58.045C23.3274 57.834 23.5074 57.613 23.7034 57.384C23.9004 57.154 24.3224 56.665 24.9674 55.917C25.6134 55.169 25.9684 54.755 26.0344 54.675C25.6114 55.002 25.2174 55.293 24.8524 55.551C24.4884 55.808 24.1264 56.052 23.7694 56.284Z" fill="#241F21"/>
<path d="M34.078 56.284C34.012 56.327 33.954 56.349 33.903 56.349C33.815 56.349 33.737 56.309 33.667 56.229C33.598 56.149 33.563 56.062 33.563 55.967C33.563 55.851 33.615 55.763 33.717 55.705C34.227 55.392 34.909 54.923 35.763 54.297C36.616 53.671 37.345 53.096 37.951 52.572C38.068 52.441 38.196 52.299 38.334 52.146C38.473 51.993 38.63 51.822 38.805 51.633C38.892 51.546 39.02 51.502 39.188 51.502C39.261 51.502 39.319 51.52 39.363 51.557C39.407 51.593 39.429 51.655 39.429 51.743C39.429 51.896 39.348 52.075 39.188 52.279C38.437 53.278 37.51 54.383 36.409 55.594C38.699 53.887 40.924 52.56 43.083 51.612C43.287 51.524 43.459 51.48 43.597 51.48C43.823 51.48 43.936 51.582 43.936 51.786C43.936 52.085 43.743 52.434 43.357 52.835C43.196 53.01 42.793 53.418 42.148 54.058C41.502 54.699 40.971 55.231 40.556 55.653C40.14 56.076 39.797 56.451 39.527 56.779C39.031 57.339 38.783 57.758 38.783 58.035C38.783 58.253 38.939 58.362 39.254 58.362C39.662 58.362 40.4 58.06 41.469 57.452C42.538 56.846 43.368 56.288 43.958 55.78C44.046 55.707 44.144 55.671 44.254 55.671C44.334 55.671 44.405 55.7 44.467 55.759C44.529 55.817 44.56 55.897 44.56 55.999C44.56 56.079 44.524 56.156 44.451 56.229C44.079 56.513 43.557 56.871 42.886 57.301C42.215 57.732 41.511 58.128 40.774 58.488C40.038 58.85 39.465 59.03 39.057 59.03C38.779 59.03 38.553 58.957 38.378 58.811C38.203 58.665 38.115 58.461 38.115 58.199C38.115 57.673 38.444 57.06 39.1 56.361C40.851 54.457 42.142 53.143 42.974 52.421C41.916 52.925 40.922 53.448 39.992 53.991C39.062 54.535 38.205 55.093 37.421 55.665C36.637 56.238 35.807 56.904 34.932 57.662C34.515 58.129 34.222 58.425 34.051 58.549C33.879 58.673 33.717 58.734 33.563 58.734C33.381 58.734 33.29 58.647 33.29 58.472C33.29 58.341 33.352 58.199 33.476 58.045C33.636 57.834 33.815 57.613 34.012 57.384C34.209 57.154 34.631 56.665 35.276 55.917C35.922 55.169 36.277 54.755 36.343 54.675C35.92 55.002 35.526 55.293 35.161 55.551C34.796 55.808 34.435 56.052 34.078 56.284Z" fill="#241F21"/>
<path d="M50.4567 56.141C49.1147 57.038 47.9377 57.699 46.9277 58.122C45.9177 58.545 45.2187 58.756 44.8327 58.756C44.3877 58.756 44.1647 58.578 44.1647 58.22C44.1647 57.841 44.3807 57.341 44.8107 56.721C45.1977 56.181 45.5767 55.689 45.9487 55.244C45.6647 55.441 45.4127 55.61 45.1937 55.753C44.9747 55.895 44.7047 56.075 44.3837 56.294C44.2667 56.353 44.1837 56.382 44.1327 56.382C44.0447 56.382 43.9717 56.345 43.9137 56.272C43.8547 56.199 43.8267 56.123 43.8267 56.042C43.8267 55.911 43.8917 55.802 44.0227 55.714C44.5187 55.386 45.0567 55.029 45.6367 54.642C46.2167 54.255 46.8167 53.838 47.4367 53.389C48.0567 52.94 48.5487 52.549 48.9137 52.213C49.0307 52.111 49.1347 52.014 49.2257 51.923C49.3167 51.832 49.4157 51.75 49.5217 51.677C49.6267 51.604 49.7237 51.567 49.8107 51.567C50.0007 51.567 50.0957 51.633 50.0957 51.764C50.0957 51.888 49.9937 52.052 49.7897 52.257C48.8047 53.198 47.9827 54.022 47.3217 54.73C46.6617 55.437 46.0327 56.203 45.4347 57.028C45.1057 57.501 44.9417 57.786 44.9417 57.881C44.9417 57.976 45.0037 58.023 45.1287 58.023C45.3617 58.023 45.8337 57.868 46.5457 57.558C47.2557 57.248 48.0677 56.825 48.9797 56.289C49.8917 55.753 50.8177 55.12 51.7587 54.39C52.8097 53.136 53.6297 52.304 54.2207 51.896C54.4247 51.779 54.5967 51.72 54.7347 51.72C54.8077 51.72 54.8757 51.741 54.9377 51.781C54.9997 51.821 55.0307 51.877 55.0307 51.95C55.0307 52.177 54.8667 52.457 54.5377 52.793C54.2537 53.106 53.8777 53.519 53.4107 54.029C52.9447 54.54 52.5017 55.021 52.0817 55.474C51.6617 55.926 51.2387 56.38 50.8127 56.836C50.3857 57.292 49.8327 57.873 49.1547 58.581C49.8917 58.333 50.7597 57.935 51.7587 57.388C52.7577 56.841 53.5937 56.305 54.2647 55.78C54.3817 55.685 54.4947 55.638 54.6037 55.638C54.6767 55.638 54.7477 55.665 54.8177 55.72C54.8867 55.775 54.9217 55.846 54.9217 55.933C54.9217 56.057 54.8737 56.156 54.7787 56.229C52.9557 57.636 50.7087 58.8 48.0387 59.719C45.7917 62.294 44.4387 63.826 43.9787 64.315C43.5047 64.825 43.1277 65.177 42.8467 65.371C42.5657 65.564 42.2937 65.66 42.0317 65.66C41.7907 65.66 41.5887 65.582 41.4247 65.425C41.2597 65.268 41.1787 65.055 41.1787 64.785C41.1787 64.508 41.2567 64.182 41.4137 63.806C41.5697 63.43 41.8837 62.989 42.3537 62.482C42.8247 61.975 43.5037 61.432 44.3897 60.852C45.2757 60.272 46.3867 59.694 47.7217 59.117C48.0347 58.796 48.3707 58.437 48.7277 58.039C49.0857 57.642 49.3637 57.332 49.5647 57.11C49.7657 56.887 50.0627 56.564 50.4567 56.141ZM41.8347 64.676C41.8347 64.8 41.8697 64.891 41.9387 64.949C42.0077 65.008 42.0757 65.037 42.1407 65.037C42.2287 65.037 42.3467 64.98 42.4967 64.867C42.6467 64.754 42.8557 64.556 43.1257 64.271C43.3957 63.986 43.7387 63.611 44.1537 63.144C44.5697 62.677 45.3577 61.776 46.5177 60.441C44.7957 61.309 43.5847 62.132 42.8847 62.908C42.1847 63.685 41.8347 64.275 41.8347 64.676Z" fill="#241F21"/>
</g>
</svg>
