<svg width="292" height="188" viewBox="0 0 292 188" fill="none" xmlns="http://www.w3.org/2000/svg">
<path d="M211.453 92.321C205.509 91.818 204.431 90.584 204.431 88.848C204.431 86.88 205.935 84.952 211.143 84.952C215.618 84.952 218.55 86.571 219.938 87.729L221.173 82.675C219.862 80.553 216.235 78.432 211.066 78.432C204.661 78.432 200.997 82.019 200.997 86.648C200.997 91.549 203.119 94.326 211.221 94.944C216.467 95.328 218.626 96.833 218.626 98.724C218.626 100.846 216.584 102.467 211.336 102.467C207.208 102.467 202.618 100.345 201.498 97.683L199.762 102.967C200.958 105.823 205.935 108.137 211.336 108.137C218.28 108.137 222.292 105.437 222.292 100.537C222.331 96.024 219.438 92.975 211.453 92.321Z" fill="black"/>
<path d="M226.272 107.752V102.311H231.904V86.532H226.503V79.589H239.93V86.532H234.683V102.311H240.161V107.752H226.272Z" fill="#241F21"/>
<path d="M257.564 102.197C261.614 102.197 265.628 99.073 265.628 94.403C265.628 89.774 262.193 86.341 256.908 86.341H249.502V102.197H257.564ZM246.723 79.59H256.099C263.005 79.59 267.98 83.603 267.98 93.903C267.98 104.279 263.042 107.752 256.252 107.752H246.723V79.59Z" fill="#241F21"/>
<path d="M273.736 79.5891V107.753H291.097V102.698H276.476V95.7151H287.354V92.3981H276.476V86.5341H290.865V79.5891H273.736Z" fill="#241F21"/>
<path d="M161.373 94.896C161.074 94.896 160.763 95.027 160.441 95.289C158.595 96.733 156.298 98.208 153.549 99.711C150.801 101.216 148.413 102.311 146.386 102.992C148.253 101.046 149.772 99.447 150.947 98.192C152.12 96.938 153.282 95.689 154.437 94.446C155.592 93.202 156.81 91.878 158.094 90.474C159.378 89.069 160.411 87.934 161.193 87.072C162.096 86.149 162.548 85.377 162.548 84.756C162.548 84.554 162.462 84.4 162.292 84.288C162.122 84.178 161.936 84.123 161.735 84.123C161.354 84.123 160.883 84.283 160.321 84.604C158.696 85.728 156.438 88.016 153.549 91.466C150.961 93.473 148.413 95.213 145.905 96.687C143.396 98.162 141.165 99.327 139.21 100.18C137.254 101.032 135.953 101.458 135.313 101.458C134.971 101.458 134.801 101.327 134.801 101.067C134.801 100.806 135.251 100.023 136.154 98.719C137.799 96.452 139.53 94.346 141.347 92.399C143.162 90.454 145.423 88.186 148.133 85.598C148.693 85.036 148.976 84.584 148.976 84.243C148.976 83.882 148.714 83.701 148.193 83.701C147.953 83.701 147.685 83.802 147.395 84.003C147.104 84.204 146.834 84.428 146.583 84.68C146.332 84.932 146.046 85.196 145.725 85.477C144.721 86.401 143.368 87.478 141.663 88.712C139.956 89.945 128.185 98.22 125.246 99.888C122.306 101.557 120.275 102.39 119.152 102.39C118.287 102.39 117.859 102.09 117.859 101.49C117.859 100.728 118.539 99.576 119.904 98.034C120.645 97.132 121.589 96.102 122.734 94.938C123.877 93.778 125.336 92.314 127.111 90.552C128.886 88.79 129.995 87.668 130.437 87.186C131.5 86.086 132.032 85.124 132.032 84.302C132.032 83.742 131.721 83.462 131.099 83.462C130.719 83.462 130.247 83.582 129.684 83.823C123.745 86.43 117.626 90.082 111.327 94.777C114.356 91.447 116.905 88.407 118.97 85.658C119.412 85.097 119.634 84.605 119.634 84.183C119.634 83.943 119.574 83.773 119.452 83.672C119.332 83.572 119.172 83.522 118.97 83.522C118.509 83.522 118.159 83.642 117.919 83.882C117.437 84.402 117.004 84.872 116.622 85.292C116.242 85.714 115.892 86.103 115.57 86.463C113.904 87.905 111.899 89.487 109.55 91.208C107.204 92.93 99.758 98.264 96.898 99.888C93.958 101.557 91.925 102.39 90.802 102.39C89.939 102.39 89.509 102.09 89.509 101.49C89.509 100.728 90.19 99.576 91.554 98.034C92.297 97.132 93.24 96.102 94.384 94.938C95.527 93.778 96.986 92.314 98.761 90.552C100.538 88.79 101.647 87.668 102.088 87.186C103.152 86.086 103.684 85.124 103.684 84.302C103.684 83.742 103.372 83.462 102.749 83.462C102.369 83.462 101.897 83.582 101.335 83.823C95.397 86.43 89.278 90.082 82.977 94.777C86.006 91.447 88.555 88.407 90.622 85.658C91.064 85.097 91.284 84.605 91.284 84.183C91.284 83.943 91.224 83.773 91.104 83.672C90.983 83.572 90.822 83.522 90.622 83.522C90.16 83.522 89.81 83.642 89.569 83.882C89.087 84.402 88.655 84.872 88.274 85.292C87.894 85.714 87.542 86.103 87.22 86.463C85.555 87.905 83.55 89.487 81.202 91.208C78.855 92.93 72.955 97.161 71.226 98.239C69.45 99.348 67.729 100.297 66.064 101.086C64.399 101.875 63.215 102.27 62.514 102.27C61.932 102.27 61.64 102.011 61.64 101.489C61.64 100.948 61.966 100.142 62.618 99.07C63.27 97.999 64.157 96.813 65.282 95.51C66.225 94.429 67.263 93.307 68.396 92.144C69.53 90.983 70.64 89.876 71.722 88.825C72.805 87.775 73.799 86.757 74.701 85.775C75.204 85.294 75.455 84.823 75.455 84.363C75.455 83.921 75.204 83.701 74.701 83.701C74.461 83.701 74.245 83.773 74.055 83.912C73.863 84.053 73.687 84.217 73.529 84.407C73.367 84.599 73.206 84.795 73.047 84.993C71.501 86.536 69.731 88.195 67.735 89.967C65.738 91.739 63.807 93.357 61.942 94.819C60.075 96.283 58.175 97.629 56.238 98.861C54.303 100.093 52.512 101.029 50.866 101.669C49.702 102.111 48.82 102.331 48.219 102.331C47.395 102.331 46.985 102.011 46.985 101.369C46.985 100.869 47.225 100.219 47.707 99.417C48.189 98.617 48.765 97.805 49.436 96.983C50.108 96.163 51.237 94.849 52.824 93.047C53.865 91.965 55.306 90.553 57.141 88.809C58.976 87.067 60.217 85.877 60.859 85.234C61.139 85.015 61.28 84.745 61.28 84.423C61.28 84.023 60.989 83.823 60.406 83.823C60.225 83.823 60.005 83.927 59.744 84.139C59.484 84.347 59.206 84.593 58.916 84.873C58.626 85.153 58.36 85.394 58.12 85.594C56.314 87.214 54.211 88.877 51.814 90.577C49.418 92.28 42.571 97.008 41.026 97.983C39.481 98.955 37.846 99.824 36.12 100.585C37.565 98.579 38.799 96.262 39.822 93.634C40.845 91.005 41.356 88.457 41.356 85.989C42.099 85.086 42.469 84.364 42.469 83.822C42.469 82.619 42.019 82.017 41.116 82.017C40.634 82.017 40.212 82.219 39.851 82.619C39.491 83.02 39.309 83.481 39.309 84.002C39.309 84.082 39.329 84.24 39.369 84.47C39.411 84.701 39.451 84.996 39.491 85.357C38.327 86.421 36.641 87.69 34.434 89.165C32.227 90.638 29.109 92.68 25.074 95.289C24.794 95.449 24.654 95.669 24.654 95.95C24.654 96.192 24.748 96.396 24.94 96.567C25.131 96.738 25.346 96.822 25.587 96.822C25.786 96.822 25.949 96.784 26.069 96.702C28.556 95.157 31.028 93.568 33.486 91.933C35.945 90.298 37.944 88.889 39.491 87.704C39.351 89.209 38.983 90.77 38.391 92.385C37.8 94 37.144 95.465 36.421 96.778C35.699 98.093 34.966 99.221 34.224 100.164C33.481 101.107 32.92 101.637 32.539 101.759C31.997 101.879 31.366 101.939 30.642 101.939C29.839 101.939 28.637 101.86 27.032 101.697C25.427 101.539 24.382 101.457 23.901 101.457C22.176 101.457 21.314 101.889 21.314 102.752C21.314 103.975 23.229 104.587 27.061 104.587C28.886 104.587 30.768 104.307 32.703 103.745C34.64 103.182 36.481 102.452 38.227 101.549C39.972 100.646 41.466 99.768 42.711 98.915C43.848 98.134 47.697 95.707 48.94 94.896C46.394 97.948 45.119 100.215 45.119 101.698C45.119 103.163 46.071 103.895 47.977 103.895C49.862 103.895 52.05 103.186 54.539 101.765C57.025 100.345 59.564 98.707 62.152 96.853C60.667 98.807 59.924 100.5 59.924 101.931C59.924 103.382 60.707 104.105 62.272 104.105C63.375 104.105 64.91 103.615 66.877 102.631C68.844 101.649 70.689 100.605 72.415 99.501C74.078 98.438 76.564 96.675 76.567 96.673C77.549 96.036 81.634 93.146 82.797 92.249C82.615 92.469 81.639 93.608 79.863 95.664C78.086 97.721 76.929 99.066 76.387 99.698C75.845 100.329 75.352 100.935 74.912 101.518C74.572 101.939 74.4 102.33 74.4 102.692C74.4 103.173 74.65 103.414 75.154 103.414C75.575 103.414 76.02 103.245 76.491 102.902C76.963 102.562 77.772 101.75 78.915 100.464C81.322 98.378 83.604 96.548 85.763 94.971C87.918 93.398 90.276 91.863 92.834 90.368C95.391 88.874 98.125 87.433 101.034 86.049C98.748 88.035 95.195 91.647 90.38 96.884C88.575 98.809 87.672 100.495 87.672 101.939C87.672 102.66 87.912 103.223 88.394 103.624C88.875 104.027 89.499 104.227 90.26 104.227C91.384 104.227 92.959 103.729 94.985 102.736C97.012 101.744 98.947 100.655 100.794 99.472C102.496 98.38 109.982 93.146 111.146 92.249C110.965 92.469 109.988 93.608 108.213 95.664C106.436 97.721 105.279 99.066 104.735 99.698C104.194 100.329 103.702 100.935 103.262 101.518C102.92 101.939 102.749 102.33 102.749 102.692C102.749 103.173 103 103.414 103.502 103.414C103.924 103.414 104.37 103.245 104.841 102.902C105.311 102.562 106.12 101.75 107.264 100.464C109.672 98.378 111.954 96.548 114.111 94.971C116.266 93.398 118.625 91.863 121.183 90.368C123.741 88.874 126.474 87.433 129.384 86.049C127.096 88.035 123.545 91.647 118.73 96.884C116.924 98.809 116.022 100.495 116.022 101.939C116.022 102.66 116.262 103.223 116.744 103.624C117.225 104.027 117.847 104.227 118.61 104.227C119.732 104.227 121.309 103.729 123.335 102.736C125.362 101.744 127.297 100.655 129.142 99.472C130.807 98.405 134.891 95.603 135.493 95.213C136.094 94.822 136.786 94.354 137.569 93.814C136.546 95.037 135.503 96.391 134.439 97.876C133.256 99.582 132.664 100.956 132.664 101.999C132.664 102.984 133.275 103.474 134.499 103.474C135.563 103.474 137.484 102.892 140.262 101.729C143.04 100.566 146.276 98.749 149.968 96.281C148.885 97.446 148.067 98.333 147.515 98.945C146.962 99.557 146.196 100.41 145.213 101.502C144.23 102.597 143.308 103.583 142.444 104.468C138.773 106.052 135.719 107.642 133.28 109.238C130.843 110.833 128.978 112.327 127.682 113.722C126.389 115.115 125.525 116.328 125.095 117.363C124.664 118.397 124.449 119.294 124.449 120.056C124.449 120.798 124.674 121.385 125.125 121.817C125.577 122.248 126.133 122.463 126.795 122.463C127.518 122.463 128.265 122.198 129.037 121.667C129.81 121.135 130.848 120.166 132.151 118.761C133.416 117.418 137.136 113.204 143.318 106.122C150.66 103.594 156.841 100.394 161.855 96.522C162.116 96.321 162.248 96.051 162.248 95.711C162.248 95.469 162.152 95.273 161.962 95.123C161.77 94.972 161.575 94.896 161.373 94.896ZM132.633 115.542C131.49 116.826 130.546 117.859 129.806 118.642C129.063 119.424 128.487 119.97 128.075 120.282C127.664 120.593 127.338 120.748 127.096 120.748C126.916 120.748 126.73 120.668 126.54 120.508C126.35 120.347 126.253 120.096 126.253 119.756C126.253 118.651 127.216 117.032 129.143 114.895C131.068 112.758 134.399 110.496 139.134 108.108C135.943 111.781 133.778 114.258 132.633 115.542Z" fill="#241F21"/>
<path d="M93.516 4.27498C44.309 4.27498 4.274 44.308 4.274 93.515C4.274 142.723 44.309 182.757 93.516 182.757C142.724 182.757 182.756 142.723 182.756 93.515C182.756 44.308 142.724 4.27498 93.516 4.27498ZM93.516 187.032C41.952 187.032 0 145.08 0 93.515C0 41.951 41.952 -1.52588e-05 93.516 -1.52588e-05C145.08 -1.52588e-05 187.031 41.951 187.031 93.515C187.031 145.08 145.08 187.032 93.516 187.032Z" fill="#FFF200"/>
</svg>
