<svg width="271" height="45" viewBox="0 0 271 45" fill="none" xmlns="http://www.w3.org/2000/svg">
<path d="M190.454 14.32C184.51 13.817 183.432 12.583 183.432 10.847C183.432 8.87899 184.936 6.95099 190.144 6.95099C194.619 6.95099 197.551 8.56999 198.939 9.72799L200.174 4.67399C198.864 2.55199 195.236 0.430986 190.067 0.430986C183.662 0.430986 179.998 4.01799 179.998 8.64699C179.998 13.548 182.12 16.325 190.222 16.943C195.468 17.327 197.627 18.832 197.627 20.723C197.627 22.845 195.585 24.466 190.337 24.466C186.209 24.466 181.619 22.344 180.5 19.682L178.763 24.966C179.959 27.822 184.936 30.136 190.337 30.136C197.281 30.136 201.293 27.436 201.293 22.536C201.332 18.023 198.439 14.974 190.454 14.32Z" fill="black"/>
<path d="M205.273 29.751V24.31H210.905V8.53098H205.504V1.58798H218.93V8.53098H213.684V24.31H219.162V29.751H205.273Z" fill="#241F21"/>
<path d="M236.565 24.195C240.615 24.195 244.629 21.071 244.629 16.401C244.629 11.772 241.194 8.339 235.909 8.339H228.503V24.195H236.565ZM225.724 1.588H235.1C242.006 1.588 246.981 5.601 246.981 15.901C246.981 26.277 242.043 29.75 235.253 29.75H225.724V1.588Z" fill="#241F21"/>
<path d="M252.737 1.58801V29.752H270.098V24.697H255.477V17.714H266.355V14.397H255.477V8.53301H269.866V1.58801H252.737Z" fill="#241F21"/>
<path d="M140.374 16.895C140.075 16.895 139.764 17.026 139.442 17.288C137.596 18.732 135.299 20.207 132.55 21.71C129.802 23.215 127.414 24.31 125.387 24.991C127.254 23.045 128.773 21.446 129.948 20.191C131.121 18.937 132.283 17.688 133.438 16.445C134.593 15.201 135.811 13.877 137.095 12.473C138.379 11.068 139.412 9.93304 140.194 9.07104C141.097 8.14804 141.549 7.37604 141.549 6.75504C141.549 6.55304 141.463 6.39904 141.293 6.28704C141.123 6.17704 140.937 6.12204 140.736 6.12204C140.355 6.12204 139.884 6.28203 139.322 6.60303C137.697 7.72703 135.439 10.015 132.55 13.465C129.962 15.472 127.414 17.212 124.906 18.686C122.397 20.161 120.166 21.326 118.211 22.179C116.255 23.031 114.954 23.457 114.314 23.457C113.972 23.457 113.802 23.326 113.802 23.066C113.802 22.805 114.252 22.022 115.155 20.718C116.8 18.451 118.531 16.345 120.348 14.398C122.163 12.453 124.424 10.185 127.134 7.59704C127.694 7.03504 127.977 6.58303 127.977 6.24203C127.977 5.88103 127.715 5.70004 127.194 5.70004C126.954 5.70004 126.686 5.80104 126.396 6.00204C126.105 6.20304 125.835 6.42704 125.584 6.67904C125.333 6.93104 125.047 7.19504 124.726 7.47604C123.722 8.40004 122.369 9.47704 120.664 10.711C118.957 11.944 107.186 20.219 104.247 21.887C101.307 23.556 99.276 24.389 98.153 24.389C97.288 24.389 96.859 24.089 96.859 23.489C96.859 22.727 97.54 21.575 98.905 20.033C99.646 19.131 100.59 18.101 101.735 16.937C102.878 15.777 104.337 14.313 106.112 12.551C107.887 10.789 108.996 9.66704 109.438 9.18504C110.501 8.08504 111.033 7.12304 111.033 6.30104C111.033 5.74104 110.722 5.46104 110.1 5.46104C109.72 5.46104 109.248 5.58104 108.685 5.82204C102.746 8.42904 96.627 12.081 90.328 16.776C93.356 13.446 95.906 10.406 97.971 7.65704C98.413 7.09604 98.634 6.60404 98.634 6.18204C98.634 5.94204 98.575 5.77204 98.453 5.67104C98.333 5.57104 98.173 5.52104 97.971 5.52104C97.51 5.52104 97.16 5.64103 96.92 5.88103C96.438 6.40103 96.005 6.87104 95.623 7.29104C95.243 7.71304 94.893 8.10204 94.571 8.46204C92.905 9.90404 90.9 11.486 88.551 13.207C86.205 14.929 78.759 20.263 75.899 21.887C72.959 23.556 70.926 24.389 69.803 24.389C68.94 24.389 68.509 24.089 68.509 23.489C68.509 22.727 69.191 21.575 70.555 20.033C71.298 19.131 72.241 18.101 73.385 16.937C74.528 15.777 75.987 14.313 77.762 12.551C79.539 10.789 80.648 9.66704 81.089 9.18504C82.153 8.08504 82.685 7.12304 82.685 6.30104C82.685 5.74104 82.373 5.46104 81.75 5.46104C81.37 5.46104 80.898 5.58104 80.336 5.82204C74.398 8.42904 68.279 12.081 61.978 16.776C65.007 13.446 67.556 10.406 69.623 7.65704C70.065 7.09604 70.285 6.60404 70.285 6.18204C70.285 5.94204 70.225 5.77204 70.105 5.67104C69.984 5.57104 69.823 5.52104 69.623 5.52104C69.161 5.52104 68.811 5.64103 68.57 5.88103C68.088 6.40103 67.656 6.87104 67.275 7.29104C66.895 7.71304 66.543 8.10204 66.221 8.46204C64.556 9.90404 62.551 11.486 60.203 13.207C57.856 14.929 51.956 19.16 50.227 20.238C48.451 21.347 46.73 22.296 45.065 23.085C43.4 23.874 42.216 24.269 41.515 24.269C40.933 24.269 40.641 24.01 40.641 23.488C40.641 22.947 40.967 22.141 41.619 21.069C42.271 19.998 43.158 18.812 44.283 17.509C45.226 16.428 46.264 15.306 47.397 14.143C48.531 12.982 49.641 11.875 50.723 10.824C51.806 9.77404 52.8 8.75604 53.702 7.77404C54.205 7.29304 54.456 6.82204 54.456 6.36204C54.456 5.92004 54.205 5.70004 53.702 5.70004C53.462 5.70004 53.246 5.77204 53.056 5.91104C52.864 6.05204 52.688 6.21604 52.53 6.40604C52.368 6.59804 52.207 6.79403 52.048 6.99203C50.502 8.53503 48.732 10.194 46.736 11.966C44.739 13.738 42.808 15.356 40.943 16.818C39.076 18.282 37.176 19.628 35.239 20.86C33.304 22.092 31.513 23.028 29.866 23.668C28.703 24.11 27.821 24.33 27.22 24.33C26.396 24.33 25.986 24.01 25.986 23.368C25.986 22.868 26.226 22.218 26.708 21.416C27.19 20.616 27.766 19.804 28.437 18.982C29.109 18.162 30.238 16.848 31.825 15.046C32.866 13.964 34.307 12.552 36.142 10.808C37.977 9.06604 39.218 7.87604 39.86 7.23304C40.14 7.01404 40.281 6.74404 40.281 6.42204C40.281 6.02204 39.99 5.82204 39.406 5.82204C39.226 5.82204 39.006 5.92604 38.745 6.13804C38.485 6.34604 38.207 6.59204 37.917 6.87204C37.627 7.15204 37.361 7.39304 37.121 7.59304C35.315 9.21304 33.212 10.876 30.816 12.576C28.419 14.279 21.571 19.007 20.026 19.982C18.482 20.954 16.847 21.823 15.121 22.584C16.566 20.578 17.8 18.261 18.823 15.633C19.846 13.004 20.357 10.456 20.357 7.98804C21.1 7.08504 21.47 6.36304 21.47 5.82104C21.47 4.61804 21.02 4.01604 20.117 4.01604C19.635 4.01604 19.213 4.21803 18.852 4.61803C18.492 5.01903 18.31 5.48004 18.31 6.00104C18.31 6.08104 18.33 6.23904 18.37 6.46904C18.412 6.70004 18.452 6.99504 18.492 7.35604C17.328 8.42004 15.642 9.68904 13.435 11.164C11.228 12.637 8.11001 14.679 4.07501 17.288C3.79501 17.448 3.65501 17.668 3.65501 17.949C3.65501 18.191 3.74901 18.395 3.94101 18.566C4.13201 18.737 4.34701 18.821 4.58801 18.821C4.78701 18.821 4.95001 18.783 5.07001 18.701C7.55701 17.156 10.029 15.567 12.487 13.932C14.946 12.297 16.945 10.888 18.492 9.70304C18.351 11.208 17.984 12.769 17.392 14.384C16.801 15.999 16.145 17.464 15.422 18.777C14.7 20.092 13.967 21.22 13.225 22.163C12.482 23.106 11.921 23.636 11.54 23.758C10.998 23.878 10.366 23.938 9.64301 23.938C8.84001 23.938 7.638 23.859 6.033 23.696C4.428 23.538 3.38301 23.456 2.90201 23.456C1.17701 23.456 0.315002 23.888 0.315002 24.751C0.315002 25.974 2.23001 26.586 6.06201 26.586C7.88701 26.586 9.76901 26.306 11.704 25.744C13.641 25.181 15.482 24.451 17.228 23.548C18.973 22.645 20.467 21.767 21.712 20.914C22.849 20.133 26.698 17.706 27.941 16.895C25.395 19.947 24.12 22.214 24.12 23.697C24.12 25.162 25.072 25.894 26.978 25.894C28.863 25.894 31.051 25.185 33.54 23.764C36.026 22.344 38.565 20.706 41.153 18.852C39.668 20.806 38.925 22.499 38.925 23.93C38.925 25.381 39.708 26.104 41.273 26.104C42.376 26.104 43.911 25.614 45.878 24.63C47.845 23.648 49.69 22.604 51.416 21.5C53.079 20.437 55.565 18.674 55.568 18.672C56.55 18.035 60.634 15.145 61.798 14.248C61.616 14.468 60.64 15.607 58.864 17.663C57.087 19.72 55.93 21.065 55.388 21.697C54.846 22.328 54.353 22.934 53.913 23.517C53.573 23.938 53.401 24.329 53.401 24.691C53.401 25.172 53.651 25.413 54.155 25.413C54.576 25.413 55.021 25.244 55.492 24.901C55.964 24.561 56.773 23.749 57.916 22.463C60.323 20.377 62.605 18.547 64.764 16.97C66.919 15.397 69.277 13.862 71.835 12.367C74.392 10.873 77.126 9.43203 80.035 8.04803C77.749 10.034 74.196 13.646 69.381 18.883C67.576 20.808 66.673 22.494 66.673 23.938C66.673 24.659 66.913 25.222 67.395 25.623C67.876 26.026 68.499 26.226 69.261 26.226C70.385 26.226 71.96 25.728 73.986 24.735C76.013 23.743 77.948 22.654 79.795 21.471C81.497 20.379 88.983 15.145 90.146 14.248C89.966 14.468 88.989 15.607 87.214 17.663C85.437 19.72 84.28 21.065 83.736 21.697C83.195 22.328 82.703 22.934 82.263 23.517C81.921 23.938 81.75 24.329 81.75 24.691C81.75 25.172 82.001 25.413 82.503 25.413C82.925 25.413 83.371 25.244 83.842 24.901C84.312 24.561 85.121 23.749 86.265 22.463C88.673 20.377 90.955 18.547 93.112 16.97C95.267 15.397 97.626 13.862 100.184 12.367C102.742 10.873 105.475 9.43203 108.385 8.04803C106.097 10.034 102.546 13.646 97.731 18.883C95.925 20.808 95.023 22.494 95.023 23.938C95.023 24.659 95.263 25.222 95.745 25.623C96.226 26.026 96.848 26.226 97.611 26.226C98.733 26.226 100.31 25.728 102.336 24.735C104.363 23.743 106.298 22.654 108.143 21.471C109.808 20.404 113.892 17.602 114.494 17.212C115.095 16.821 115.787 16.353 116.57 15.813C115.547 17.036 114.504 18.39 113.44 19.875C112.257 21.581 111.665 22.955 111.665 23.998C111.665 24.983 112.276 25.473 113.5 25.473C114.564 25.473 116.485 24.891 119.263 23.728C122.041 22.565 125.277 20.748 128.969 18.28C127.886 19.445 127.068 20.332 126.516 20.944C125.963 21.556 125.197 22.409 124.214 23.501C123.231 24.596 122.309 25.582 121.445 26.467C117.774 28.051 114.72 29.641 112.281 31.237C109.844 32.832 107.979 34.326 106.683 35.721C105.39 37.114 104.526 38.327 104.096 39.362C103.665 40.396 103.45 41.293 103.45 42.055C103.45 42.797 103.675 43.384 104.126 43.816C104.578 44.247 105.134 44.462 105.796 44.462C106.519 44.462 107.266 44.197 108.038 43.666C108.811 43.134 109.849 42.165 111.152 40.76C112.417 39.417 116.137 35.203 122.319 28.121C129.66 25.593 135.842 22.393 140.856 18.521C141.117 18.32 141.249 18.05 141.249 17.71C141.249 17.468 141.153 17.272 140.963 17.122C140.771 16.971 140.575 16.895 140.374 16.895ZM111.634 37.541C110.49 38.825 109.547 39.858 108.807 40.641C108.064 41.423 107.488 41.969 107.076 42.281C106.665 42.592 106.339 42.747 106.097 42.747C105.917 42.747 105.731 42.667 105.541 42.507C105.351 42.346 105.254 42.095 105.254 41.755C105.254 40.65 106.217 39.031 108.144 36.894C110.069 34.757 113.4 32.495 118.135 30.107C114.944 33.78 112.779 36.257 111.634 37.541Z" fill="#241F21"/>
</svg>
