<svg width="461" height="114" viewBox="0 0 461 114" fill="none" xmlns="http://www.w3.org/2000/svg">
<rect width="461" height="114" fill="white"/>
<path d="M256.736 94.152C253.216 94.152 249.792 93.832 246.464 93.192C243.136 92.552 240.192 91.464 237.632 89.928C235.072 88.392 233.056 86.376 231.584 83.88C230.112 81.384 229.376 78.28 229.376 74.568C229.376 74.248 229.376 73.96 229.376 73.704C229.376 73.384 229.408 73.064 229.472 72.744H237.056C237.056 73 237.024 73.352 236.96 73.8C236.96 74.248 236.96 74.632 236.96 74.952C236.96 77.768 237.792 80.136 239.456 82.056C241.184 83.912 243.488 85.32 246.368 86.28C249.312 87.176 252.608 87.624 256.256 87.624C257.472 87.624 258.912 87.56 260.576 87.432C262.304 87.24 264.032 86.92 265.76 86.472C267.552 85.96 269.184 85.288 270.656 84.456C272.128 83.56 273.312 82.44 274.208 81.096C275.168 79.688 275.648 77.96 275.648 75.912C275.648 73.544 275.008 71.592 273.728 70.056C272.448 68.52 270.752 67.272 268.64 66.312C266.592 65.288 264.224 64.392 261.536 63.624C258.848 62.856 256.096 62.12 253.28 61.416C250.464 60.712 247.712 59.912 245.024 59.016C242.4 58.12 240.032 57 237.92 55.656C235.808 54.312 234.112 52.648 232.832 50.664C231.616 48.616 231.008 46.12 231.008 43.176C231.008 40.616 231.52 38.28 232.544 36.168C233.568 34.056 235.136 32.264 237.248 30.792C239.36 29.256 242.048 28.072 245.312 27.24C248.576 26.408 252.448 25.992 256.928 25.992C260.32 25.992 263.488 26.344 266.432 27.048C269.376 27.752 271.968 28.872 274.208 30.408C276.448 31.88 278.176 33.768 279.392 36.072C280.672 38.312 281.312 41.032 281.312 44.232V45.384H273.824V43.752C273.824 41.384 273.088 39.4 271.616 37.8C270.144 36.136 268.16 34.856 265.664 33.96C263.232 33 260.448 32.52 257.312 32.52C253.024 32.52 249.504 32.968 246.752 33.864C244 34.696 241.952 35.88 240.608 37.416C239.264 38.888 238.592 40.552 238.592 42.408C238.592 44.584 239.232 46.408 240.512 47.88C241.792 49.288 243.488 50.472 245.6 51.432C247.712 52.328 250.08 53.16 252.704 53.928C255.392 54.632 258.144 55.336 260.96 56.04C263.776 56.744 266.496 57.576 269.12 58.536C271.808 59.432 274.208 60.584 276.32 61.992C278.496 63.336 280.192 65.032 281.408 67.08C282.688 69.128 283.328 71.656 283.328 74.664C283.328 79.208 282.176 82.92 279.872 85.8C277.632 88.68 274.528 90.792 270.56 92.136C266.592 93.48 261.984 94.152 256.736 94.152ZM297.517 93V27.144H305.101V93H297.517ZM322.455 93V27.144H346.167C353.207 27.144 359.159 28.296 364.023 30.6C368.951 32.84 372.695 36.392 375.255 41.256C377.879 46.056 379.191 52.328 379.191 60.072C379.191 67.688 377.879 73.928 375.255 78.792C372.695 83.656 368.951 87.24 364.023 89.544C359.159 91.848 353.207 93 346.167 93H322.455ZM330.039 86.472H345.879C349.783 86.472 353.303 86.024 356.439 85.128C359.575 84.168 362.263 82.696 364.503 80.712C366.743 78.664 368.439 76.04 369.591 72.84C370.743 69.64 371.319 65.768 371.319 61.224V59.208C371.319 54.536 370.743 50.6 369.591 47.4C368.439 44.136 366.743 41.512 364.503 39.528C362.327 37.48 359.671 36.008 356.535 35.112C353.399 34.152 349.847 33.672 345.879 33.672H330.039V86.472ZM393.236 93V27.144H443.636V33.672H400.82V55.944H439.412V62.568H400.82V86.472H444.212V93H393.236Z" fill="black"/>
<rect width="214" height="113" fill="#FFEF08"/>
<path d="M24.928 76.208C22.688 76.208 20.992 75.792 19.84 74.96C18.688 74.128 18.112 73.008 18.112 71.6C18.112 70.576 18.464 69.68 19.168 68.912C19.808 68.08 20.576 67.44 21.472 66.992C22.368 66.48 23.072 66.224 23.584 66.224C24.288 66.224 24.768 66.384 25.024 66.704C25.216 66.96 25.312 67.248 25.312 67.568C25.312 68.08 25.024 68.496 24.448 68.816C23.808 69.136 23.296 69.296 22.912 69.296C22.464 69.296 22.08 69.168 21.76 68.912C21.376 68.592 21.184 68.432 21.184 68.432C20.864 68.496 20.416 68.848 19.84 69.488C19.264 70.128 18.976 70.832 18.976 71.6C18.976 72.368 19.392 73.104 20.224 73.808C21.056 74.512 22.4 74.864 24.256 74.864C26.176 74.864 28 74.224 29.728 72.944C31.52 71.664 32.992 70.032 34.144 68.048C35.296 66.064 35.872 64.048 35.872 62C35.872 61.296 35.872 60.368 35.872 59.216C35.872 58 35.872 57.008 35.872 56.24C35.872 55.28 36.032 54.192 36.352 52.976C36.672 51.696 37.024 50.512 37.408 49.424C37.856 48.336 38.208 47.664 38.464 47.408C38.976 46.96 39.36 46.832 39.616 47.024C39.872 47.216 39.936 47.408 39.808 47.6C39.744 47.664 39.328 48.176 38.56 49.136C37.792 50.032 36.832 51.152 35.68 52.496C34.528 53.84 33.376 55.184 32.224 56.528C31.072 57.872 30.048 59.056 29.152 60.08C28.32 61.104 27.84 61.712 27.712 61.904C27.392 62.352 27.104 62.448 26.848 62.192C26.592 61.936 26.656 61.616 27.04 61.232C27.744 60.336 28.608 59.28 29.632 58.064C30.72 56.784 31.808 55.536 32.896 54.32C33.984 53.104 34.912 52.08 35.68 51.248C36.512 50.352 36.96 49.84 37.024 49.712C37.216 49.456 37.376 49.008 37.504 48.368C37.696 47.728 37.92 47.12 38.176 46.544C38.496 45.968 38.88 45.68 39.328 45.68C40.416 45.68 40.96 46.064 40.96 46.832C40.96 47.408 40.512 48.112 39.616 48.944C38.784 49.776 38.304 50.448 38.176 50.96C37.984 51.728 37.984 52.816 38.176 54.224C38.432 55.568 38.688 57.104 38.944 58.832C39.264 60.56 39.424 62.384 39.424 64.304C39.424 66.864 38.912 68.944 37.888 70.544C36.864 72.08 35.584 73.264 34.048 74.096C32.512 74.928 30.912 75.472 29.248 75.728C27.648 76.048 26.208 76.208 24.928 76.208ZM39.712 69.584C38.048 69.584 36.96 69.264 36.448 68.624C36 67.984 35.84 67.248 35.968 66.416C36.16 65.52 36.384 64.72 36.64 64.016L37.6 64.112C37.408 64.752 37.216 65.424 37.024 66.128C36.896 66.832 36.992 67.44 37.312 67.952C37.632 68.464 38.464 68.72 39.808 68.72C40.768 68.72 41.856 68.272 43.072 67.376C44.288 66.48 45.472 65.392 46.624 64.112C47.84 62.832 48.864 61.584 49.696 60.368L50.56 61.04C49.728 62.064 48.704 63.248 47.488 64.592C46.336 65.936 45.088 67.12 43.744 68.144C42.4 69.104 41.056 69.584 39.712 69.584ZM58.2003 49.616C58.7763 49.872 59.6403 50 60.7923 50C62.0083 50 63.0323 49.936 63.8643 49.808C62.2643 51.728 60.4723 53.808 58.4883 56.048C56.5043 58.224 54.6163 60.4 52.8242 62.576C51.0323 64.752 49.5603 66.704 48.4082 68.432C47.1922 70.16 46.5842 71.504 46.5842 72.464C46.5842 73.104 46.7762 73.52 47.1602 73.712C47.4802 73.904 47.8962 74 48.4082 74C49.9443 74 51.6403 73.392 53.4963 72.176C55.4163 70.96 57.3683 69.392 59.3523 67.472C61.4003 65.488 63.3843 63.376 65.3043 61.136C67.2243 58.896 68.9843 56.784 70.5843 54.8C72.2483 52.752 73.6563 51.056 74.8083 49.712C75.4483 49.904 76.3443 50 77.4963 50C78.6483 50 79.6403 49.936 80.4723 49.808C78.8083 51.92 76.9523 54.16 74.9043 56.528C72.8563 58.832 70.8723 61.072 68.9523 63.248C67.0963 65.36 65.5603 67.248 64.3443 68.912C63.1283 70.512 62.5203 71.728 62.5203 72.56C62.5203 72.944 62.6803 73.264 63.0003 73.52C63.3843 73.712 63.8963 73.808 64.5363 73.808C65.9443 73.808 67.4483 73.328 69.0483 72.368C70.7123 71.344 72.3443 70.096 73.9443 68.624C75.6083 67.088 77.1763 65.552 78.6483 64.016C80.1843 62.416 81.4963 61.008 82.5843 59.792L83.3523 60.464C82.3283 61.552 81.0483 62.928 79.5123 64.592C78.0403 66.192 76.4083 67.792 74.6163 69.392C72.8883 70.928 71.1283 72.24 69.3363 73.328C67.5443 74.352 65.8483 74.864 64.2483 74.864C63.3523 74.864 62.5203 74.608 61.7523 74.096C60.9843 73.584 60.6003 72.656 60.6003 71.312C60.6003 70.096 60.8883 68.848 61.4643 67.568C62.0403 66.224 62.6483 65.072 63.2883 64.112C63.9283 63.088 64.3123 62.48 64.4403 62.288L65.1123 62.576C64.5363 63.408 63.6083 64.528 62.3282 65.936C61.1123 67.28 59.6723 68.656 58.0083 70.064C56.4083 71.408 54.7123 72.56 52.9203 73.52C51.1283 74.416 49.3682 74.864 47.6402 74.864C44.8882 74.864 43.5122 73.424 43.5122 70.544C43.5122 69.328 44.0242 67.888 45.0482 66.224C46.0722 64.496 47.3842 62.672 48.9842 60.752C50.5203 58.768 52.1203 56.816 53.7843 54.896C55.4483 52.976 56.9203 51.216 58.2003 49.616ZM102.725 74.864C99.3328 74.864 97.6368 73.872 97.6368 71.888C97.6368 70.608 98.0528 69.232 98.8848 67.76C99.7808 66.288 100.869 64.816 102.149 63.344C103.429 61.808 104.709 60.304 105.989 58.832C107.333 57.36 108.421 56.016 109.253 54.8C110.149 53.52 110.597 52.432 110.597 51.536C110.597 51.216 110.437 50.96 110.117 50.768C109.861 50.512 109.477 50.384 108.965 50.384C108.197 50.384 107.109 50.768 105.701 51.536C104.357 52.304 102.629 53.616 100.517 55.472C98.4688 57.264 96.0368 59.696 93.2208 62.768C90.4048 65.776 87.1728 69.552 83.5248 74.096C82.9488 73.968 82.0847 73.904 80.9327 73.904C79.7807 73.904 78.7887 74.032 77.9567 74.288C79.8127 71.6 81.6367 68.976 83.4288 66.416C85.2208 63.856 86.8528 61.52 88.3248 59.408C89.8608 57.296 91.0768 55.568 91.9728 54.224C92.8688 52.816 93.3168 51.952 93.3168 51.632C93.3168 51.056 93.0288 50.768 92.4528 50.768C91.8128 50.768 91.0128 51.28 90.0528 52.304C89.0928 53.264 88.0368 54.512 86.8848 56.048C85.7328 57.52 84.5488 59.024 83.3328 60.56L82.4688 59.984C83.7488 58.512 84.9968 56.976 86.2128 55.376C87.4288 53.776 88.6768 52.4 89.9568 51.248C91.2368 50.096 92.5808 49.52 93.9888 49.52C94.6928 49.52 95.3328 49.712 95.9088 50.096C96.5488 50.416 96.8688 50.96 96.8688 51.728C96.8688 52.432 96.5808 53.296 96.0048 54.32C95.4928 55.28 94.7888 56.4 93.8928 57.68C92.9968 58.896 91.9728 60.272 90.8208 61.808C89.7328 63.28 88.5808 64.88 87.3648 66.608L87.4608 67.184C90.8528 63.472 93.7008 60.464 96.0048 58.16C98.3728 55.856 100.325 54.096 101.861 52.88C103.461 51.6 104.837 50.736 105.989 50.288C107.205 49.776 108.357 49.52 109.445 49.52C110.917 49.52 111.973 49.84 112.613 50.48C113.253 51.056 113.573 51.856 113.573 52.88C113.573 54.416 113.125 56.048 112.229 57.776C111.333 59.44 110.213 61.104 108.869 62.768C107.589 64.368 106.277 65.872 104.933 67.28C103.653 68.624 102.565 69.776 101.669 70.736C100.773 71.696 100.325 72.336 100.325 72.656C100.325 73.04 100.421 73.328 100.613 73.52C100.869 73.712 101.477 73.808 102.437 73.808C104.805 73.808 107.045 73.072 109.157 71.6C111.333 70.128 113.413 68.336 115.397 66.224C117.381 64.048 119.237 61.904 120.965 59.792L121.733 60.464C120.005 62.512 118.117 64.656 116.069 66.896C114.021 69.136 111.877 71.024 109.637 72.56C107.397 74.096 105.093 74.864 102.725 74.864ZM141.069 74.864C137.677 74.864 135.981 73.872 135.981 71.888C135.981 70.608 136.397 69.232 137.229 67.76C138.125 66.288 139.213 64.816 140.493 63.344C141.773 61.808 143.053 60.304 144.333 58.832C145.677 57.36 146.765 56.016 147.597 54.8C148.493 53.52 148.941 52.432 148.941 51.536C148.941 51.216 148.781 50.96 148.461 50.768C148.205 50.512 147.821 50.384 147.309 50.384C146.541 50.384 145.453 50.768 144.045 51.536C142.701 52.304 140.973 53.616 138.861 55.472C136.813 57.264 134.381 59.696 131.565 62.768C128.749 65.776 125.517 69.552 121.869 74.096C121.293 73.968 120.428 73.904 119.276 73.904C118.124 73.904 117.132 74.032 116.3 74.288C118.156 71.6 119.98 68.976 121.773 66.416C123.565 63.856 125.197 61.52 126.669 59.408C128.205 57.296 129.421 55.568 130.317 54.224C131.213 52.816 131.661 51.952 131.661 51.632C131.661 51.056 131.373 50.768 130.797 50.768C130.157 50.768 129.357 51.28 128.397 52.304C127.437 53.264 126.381 54.512 125.229 56.048C124.077 57.52 122.893 59.024 121.677 60.56L120.812 59.984C122.093 58.512 123.341 56.976 124.557 55.376C125.773 53.776 127.021 52.4 128.301 51.248C129.581 50.096 130.925 49.52 132.333 49.52C133.037 49.52 133.677 49.712 134.253 50.096C134.893 50.416 135.213 50.96 135.213 51.728C135.213 52.432 134.925 53.296 134.349 54.32C133.837 55.28 133.133 56.4 132.237 57.68C131.341 58.896 130.317 60.272 129.165 61.808C128.077 63.28 126.925 64.88 125.709 66.608L125.805 67.184C129.197 63.472 132.045 60.464 134.349 58.16C136.717 55.856 138.669 54.096 140.205 52.88C141.805 51.6 143.181 50.736 144.333 50.288C145.549 49.776 146.701 49.52 147.789 49.52C149.261 49.52 150.317 49.84 150.957 50.48C151.597 51.056 151.917 51.856 151.917 52.88C151.917 54.416 151.469 56.048 150.573 57.776C149.677 59.44 148.557 61.104 147.213 62.768C145.933 64.368 144.621 65.872 143.277 67.28C141.997 68.624 140.909 69.776 140.013 70.736C139.117 71.696 138.669 72.336 138.669 72.656C138.669 73.04 138.765 73.328 138.957 73.52C139.213 73.712 139.821 73.808 140.781 73.808C143.149 73.808 145.389 73.072 147.501 71.6C149.677 70.128 151.757 68.336 153.741 66.224C155.725 64.048 157.581 61.904 159.309 59.792L160.077 60.464C158.349 62.512 156.461 64.656 154.413 66.896C152.365 69.136 150.221 71.024 147.981 72.56C145.741 74.096 143.437 74.864 141.069 74.864ZM168.756 49.616C169.652 49.872 170.58 50 171.54 50C172.5 49.936 173.492 49.872 174.516 49.808C172.788 51.472 170.836 53.456 168.66 55.76C166.548 58 164.5 60.272 162.516 62.576C160.596 64.816 158.996 66.832 157.716 68.624C156.436 70.352 155.796 71.536 155.796 72.176C155.796 72.624 155.956 73.04 156.276 73.424C156.596 73.744 157.14 73.904 157.908 73.904C160.148 73.904 162.452 73.232 164.82 71.888C167.252 70.544 169.588 68.848 171.828 66.8C174.132 64.688 176.276 62.512 178.26 60.272C180.244 57.968 181.972 55.888 183.444 54.032C184.98 52.112 186.1 50.704 186.804 49.808C187.316 49.936 188.148 50 189.3 50C190.516 50 191.348 49.968 191.796 49.904C185.204 57.84 179.412 65.136 174.42 71.792C169.492 78.384 165.044 84.048 161.076 88.784C157.108 93.584 153.332 97.296 149.748 99.92C146.1 102.544 142.292 103.856 138.324 103.856C135.892 103.856 134.676 102.896 134.676 100.976C134.676 99.568 135.572 98.096 137.364 96.56C139.092 95.024 141.428 93.424 144.372 91.76C147.316 90.16 150.58 88.56 154.164 86.96C157.748 85.36 161.396 83.824 165.108 82.352C169.972 80.432 173.972 78.32 177.108 76.016C180.308 73.776 183.092 71.312 185.46 68.624C187.892 65.936 190.356 62.992 192.852 59.792L193.62 60.272C191.06 63.536 188.532 66.544 186.036 69.296C183.54 71.984 180.692 74.48 177.492 76.784C174.292 79.088 170.26 81.232 165.396 83.216C161.748 84.688 158.196 86.192 154.74 87.728C151.22 89.328 148.052 90.864 145.236 92.336C142.356 93.872 140.084 95.376 138.42 96.848C136.692 98.32 135.828 99.696 135.828 100.976C135.828 101.744 136.084 102.224 136.596 102.416C137.108 102.672 137.78 102.8 138.612 102.8C140.596 102.8 142.74 102.032 145.044 100.496C147.284 98.96 149.652 96.88 152.148 94.256C154.644 91.632 157.172 88.656 159.732 85.328C162.356 82.064 165.012 78.672 167.7 75.152C170.388 71.632 173.108 68.208 175.86 64.88L175.476 64.688C175.348 64.88 174.9 65.36 174.132 66.128C173.364 66.896 172.372 67.76 171.156 68.72C169.94 69.68 168.564 70.64 167.028 71.6C165.492 72.56 163.86 73.36 162.132 74C160.468 74.576 158.772 74.864 157.044 74.864C155.828 74.864 154.9 74.576 154.26 74C153.556 73.488 153.204 72.752 153.204 71.792C153.204 70.256 153.716 68.528 154.74 66.608C155.764 64.624 157.108 62.608 158.772 60.56C160.372 58.512 162.068 56.528 163.86 54.608C165.652 52.688 167.284 51.024 168.756 49.616Z" fill="#150404"/>
</svg>
